<svg width="416" height="898" viewBox="0 0 416 898" fill="none" xmlns="http://www.w3.org/2000/svg">
<g opacity="0.05" clip-path="url(#clip0_18_87)">
<path d="M771.877 573.039C771.525 600.581 755.694 629.152 727.172 644.682C711.241 653.359 705.633 663.015 708.471 681.299C715.505 726.494 686.915 770.014 643.066 787.485C632.876 791.55 622.753 799.729 616.458 808.672C590.622 845.273 546.437 862.495 503.662 850.748C461.492 839.167 431.207 800.891 429.444 756.956C427.749 714.665 454.944 675.31 496.544 659.913C499.213 658.917 502.017 658.27 504.686 657.241C517.059 652.446 523.589 643.47 519.661 630.645C515.581 617.322 504.888 611.183 491.424 616.393C475.593 622.532 460.535 630.662 445.342 638.327C440.557 640.733 436.428 644.416 429.226 649.443C429.226 641.546 429.226 636.684 429.226 631.807C429.259 533.352 429.243 434.898 429.377 336.461C429.411 309.616 435.907 297.736 457.026 291.083C462.415 275.288 469.499 260.256 478.061 246.186C475.291 245.191 472.118 244.726 468.593 244.875C456.304 245.373 444.15 248.808 429.562 251.379C429.562 194.188 428.823 137.661 429.914 81.1834C430.367 57.5902 450.395 40.6005 474.267 44.5493C500.254 48.8299 525.452 57.6732 551.121 64.5587C534.769 81.2995 520.215 93.9589 508.53 108.825C497.4 122.994 499.918 136.914 511.519 144.381C523.421 152.046 534.501 147.964 545.077 132.003C561.126 107.78 588.255 98.7206 613.638 109.09C626.749 114.449 637.09 124.952 642.882 137.362C653.978 135.753 665.31 134.89 676.86 134.89C680.805 134.89 684.716 134.99 688.611 135.189C682.903 111.928 668.533 92.615 645.903 77.0853C634.656 69.3536 623.66 61.0081 611.589 54.7531C580.835 38.8418 550.499 21.3875 518.183 9.30888C479.572 -5.12575 440.557 -5.2253 407.553 27.2609C376.295 -3.89798 339.563 -3.38364 301.506 7.33449C286.179 11.6483 270.466 16.493 256.817 24.3076C224.249 42.9399 191.598 61.8709 161.229 83.7385C131.246 105.324 120.099 136.931 124.716 173.565C125.27 177.962 125.74 182.359 126.243 186.739C124.179 187.966 122.869 189.128 121.341 189.609C55.6181 210.631 20.7167 278.059 33.0556 336.61C34.2811 342.417 30.5206 350.497 26.6931 355.889C-3.54138 398.48 -8.47694 443.41 13.9849 490.413C18.4839 499.804 17.8628 506.275 13.498 515.168C-13.5804 570.352 1.41096 634.511 50.4979 672.041C59.3449 678.81 61.5273 685.53 62.0645 695.966C65.0191 753.904 92.9201 796.229 145.197 823.19C154.346 827.902 163.294 834.754 169.673 842.701C227.708 914.941 338.019 916.053 396.927 844.543C400.368 840.362 403.944 836.281 407.704 831.867C409.836 834.173 411.062 835.318 412.086 836.612C477.843 918.906 584.662 918.442 650.738 835.783C654.398 831.204 659.938 827.52 665.343 824.998C722.102 798.518 750.591 754.036 753.931 692.498C754.284 685.961 758.8 677.815 764.021 673.684C791.838 651.633 808.894 621.984 813.594 590.195L788.178 565.075C782.84 567.979 777.4 570.634 771.894 573.106L771.877 573.039ZM385.763 752.958C385.578 800.858 354.404 839.599 310.504 851.014C266.202 862.512 223.242 844.576 196.416 804.84C191.497 797.573 182.818 791.218 174.457 788.049C126.646 769.914 99.5512 726.694 107.273 676.886C109.724 661.124 103.144 653.16 90.0494 646.009C49.222 623.71 33.5592 579.062 50.3971 541.449C74.6888 548.617 97.1002 556.813 120.25 561.558C138.851 565.374 150.988 556 151.861 541.764C152.701 528.209 143.316 520.726 124.195 518.735C87.8503 514.969 62.0309 496.486 49.4403 462.507C37.0174 429.008 44.7565 398.613 70.089 373.692C81.3535 362.626 84.1066 352.372 79.255 337.423C68.2256 303.444 76.9383 273.297 103.295 249.422C129.148 226.011 159.835 220.088 192.554 233.245C225.727 246.584 243.639 271.953 246.694 307.326C248.222 325.029 255.827 333.723 269.509 333.242C283.896 332.728 291.383 322.441 290.544 304.323C287.958 248.326 245.15 197.739 188.593 187.12C171.99 184.001 168.229 175.473 167.423 162.067C166.064 139.586 180.988 117.021 202.543 108.676C224.535 100.148 249.448 106.419 264.707 124.603C267.964 128.486 270.247 133.165 273.269 137.263C281.075 147.881 291.265 151.681 303.017 144.563C314.567 137.578 318.226 125.682 310.37 115.379C299.223 100.778 285.172 88.3343 272.228 75.0943C270.348 73.1697 267.662 71.9917 263.734 69.4034C289.956 54.4876 316.245 44.8314 345.086 44.0681C366.088 43.504 384.151 58.0548 384.991 78.5619C386.518 115.727 385.427 152.992 385.427 190.92C373.357 188.331 362.495 185.113 351.415 183.852C336.055 182.126 325.16 190.439 324.673 203.463C324.136 217.798 331.875 224.932 346.094 226.89C373.105 230.59 385.796 244.179 385.83 270.924C386.082 431.597 386.401 592.286 385.78 752.958H385.763Z" fill="black"/>
<path d="M167.003 513.657C208.989 509.659 238.484 488.521 253.543 449.382C257.186 439.924 262.793 436.672 271.892 432.657C291.886 423.847 311.46 413.013 328.919 400.005C342.081 390.2 338.908 369.576 324.454 365.594C316.429 363.388 303.973 366.507 297.291 371.849C269.458 394.132 239.156 401.216 206.084 388.026C173.063 374.869 155.017 349.368 152.263 313.879C152.045 311.075 152.096 308.171 151.374 305.483C148.15 293.521 140.277 286.934 127.602 288.278C115.818 289.539 108.901 296.872 108.7 308.619C108.548 317.578 109.119 326.803 111.134 335.497C123.439 388.491 157.87 420.512 211.926 435.893C201.451 458.441 184.815 468.727 161.933 470.884C146.035 472.394 137.994 481.519 139.471 494.809C140.915 507.767 151.139 515.15 166.969 513.641L167.003 513.657Z" fill="black"/>
<path d="M315.439 516.577C302.462 517.805 289.065 519.697 276.945 524.143C224.651 543.339 197.187 582.164 189.935 637.33C173.97 638.392 160.17 641.959 160.254 659.829C160.338 678.876 174.574 680.784 190.119 682.177C232.256 685.927 263.767 719.176 267.292 762.115C268.736 779.686 276.475 788.396 290.19 787.915C304.544 787.417 312.4 777.23 310.99 758.93C307.532 714.083 286.413 679.257 247.147 656.577C236.168 650.239 233.633 643.569 235.244 632.187C240.868 592.467 273.352 563.681 318.024 559.616C333.821 558.172 342.752 549.644 341.997 536.719C341.258 524.01 330.749 515.134 315.456 516.577H315.439Z" fill="black"/>
</g>
<defs>
<clipPath id="clip0_18_87">
<rect width="988" height="898" fill="white"/>
</clipPath>
</defs>
</svg>
