<svg xmlns="http://www.w3.org/2000/svg" viewBox="0 0 24 24" width="24" height="24"><path d="M12 2C8.13 2 5 5.13 5 9c0 2.39 1.19 4.5 3.04 5.75L8 21l3-1.5L14 21l-1.04-6.25C17.81 13.5 19 11.39 19 9c0-3.87-3.13-7-7-7zm0 16.68c-.61-.38-1.22-.74-1.85-1.07-.56-.3-1.15-.62-1.79-.94l.95-5.73c.28.15.56.31.85.48.28.16.58.32.88.48.3.16.62.32.95.48.34.16.7.32 1.07.48.38.17.78.33 1.2.48.42.15.86.31 1.32.48L12 18.68zm2.06-8.31c-.2-.09-.41-.19-.63-.29-.21-.1-.42-.2-.65-.3-.23-.1-.46-.2-.71-.31-.25-.11-.5-.21-.76-.32-.25-.1-.51-.2-.78-.31-.26-.1-.53-.21-.8-.32l-.95 5.73c.63.29 1.24.61 1.82.94.66.37 1.31.74 1.92 1.1l.52-2.26c.3-.15.59-.32.88-.48.31-.17.61-.34.91-.51.29-.16.58-.32.86-.48.27-.16.54-.31.81-.48l-.53 2.31c.61-.34 1.22-.71 1.79-1.1-.56-.34-1.15-.66-1.77-.97-.54-.27-1.09-.52-1.63-.76-.28-.12-.56-.25-.83-.37-.26-.12-.52-.23-.79-.35z"/></svg>
