<svg width="39" height="39" viewBox="0 0 39 39" fill="none" xmlns="http://www.w3.org/2000/svg">
<path d="M19.1533 38.6132C29.7314 38.6132 38.3066 30.038 38.3066 19.4599C38.3066 8.88186 29.7314 0.306641 19.1533 0.306641C8.57522 0.306641 0 8.88186 0 19.4599C0 30.038 8.57522 38.6132 19.1533 38.6132Z" fill="#FDE047"/>
<path d="M17.0703 27.5029C17.0703 27.3563 17.038 27.2114 16.9758 27.0786C16.9135 26.9458 16.8228 26.8284 16.7101 26.7345C16.5974 26.6407 16.4655 26.5728 16.3236 26.5356C16.1817 26.4985 16.0334 26.493 15.8892 26.5195C14.5801 26.7598 12.9273 26.7959 12.4878 25.5615C12.1046 24.6055 11.4699 23.7711 10.6509 23.1465C10.5925 23.1148 10.5368 23.0782 10.4844 23.0372C10.4127 22.8481 10.2854 22.6852 10.1193 22.5699C9.95311 22.4547 9.75592 22.3925 9.55372 22.3916H9.54884C9.28444 22.3916 9.03077 22.4962 8.84335 22.6827C8.65594 22.8692 8.55004 23.1224 8.54884 23.3868C8.54493 24.2022 9.35984 24.7247 9.69044 24.9014C10.0803 25.2931 10.3936 25.7541 10.6143 26.2608C10.9785 27.2842 12.0371 28.837 15.0801 28.6368C15.0811 28.6719 15.082 28.7051 15.0825 28.7354L15.0869 29.003C15.0869 29.2682 15.1923 29.5226 15.3798 29.7101C15.5674 29.8976 15.8217 30.003 16.0869 30.003C16.3521 30.003 16.6065 29.8976 16.794 29.7101C16.9816 29.5226 17.0869 29.2682 17.0869 29.003L17.082 28.6846C17.0772 28.4951 17.0703 28.2207 17.0703 27.5029ZM27.7373 12.3769C27.7691 12.2519 27.8003 12.1133 27.8277 11.957C27.9894 10.8426 27.8484 9.70521 27.4195 8.66402C27.3653 8.52828 27.2822 8.40603 27.1758 8.30582C27.0694 8.20562 26.9425 8.12989 26.8037 8.08395C26.4477 7.96383 25.1333 7.7275 22.6197 9.33395C20.5302 8.84224 18.3551 8.84224 16.2657 9.33395C13.7622 7.75103 12.4546 7.96583 12.1021 8.07911C11.9599 8.12319 11.8295 8.19851 11.7202 8.29957C11.611 8.40062 11.5257 8.52483 11.4707 8.66311C11.033 9.72429 10.8936 10.8849 11.0674 12.0195C11.0918 12.1475 11.1182 12.2656 11.1455 12.374C10.3171 13.4775 9.87583 14.8234 9.89015 16.2031C9.88745 16.511 9.90163 16.8187 9.93263 17.125C10.2666 21.7275 13.2666 23.1094 15.3569 23.584C15.3135 23.709 15.2739 23.8428 15.2388 23.9844C15.1761 24.2417 15.2181 24.5133 15.3554 24.7398C15.4927 24.9662 15.7142 25.1289 15.9714 25.1923C16.2285 25.2556 16.5002 25.2144 16.727 25.0777C16.9538 24.941 17.1171 24.7199 17.1812 24.4629C17.2448 24.1297 17.4079 23.8236 17.6489 23.585C17.7947 23.4574 17.9002 23.2902 17.9527 23.1037C18.0052 22.9172 18.0023 22.7195 17.9445 22.5346C17.8866 22.3497 17.7763 22.1856 17.6269 22.0623C17.4775 21.9389 17.2955 21.8617 17.103 21.8399C13.6489 21.4453 12.1494 20.0381 11.9238 16.9414C11.8989 16.6962 11.8876 16.4497 11.8902 16.2031C11.8741 15.2198 12.199 14.2612 12.8096 13.4903C12.8709 13.4099 12.9363 13.3326 13.0054 13.2588C13.1278 13.1218 13.2101 12.9537 13.2433 12.773C13.2765 12.5923 13.2592 12.4059 13.1934 12.2344C13.1259 12.0539 13.074 11.868 13.0381 11.6787C12.9566 11.1404 12.9834 10.5913 13.1167 10.0635C13.9858 10.309 14.8038 10.7085 15.5317 11.2432C15.6521 11.3233 15.7883 11.3767 15.9311 11.3996C16.0739 11.4225 16.2199 11.4145 16.3594 11.376C18.3805 10.8275 20.5113 10.8278 22.5322 11.377C22.6724 11.4154 22.8192 11.423 22.9626 11.3993C23.106 11.3755 23.2425 11.3209 23.3628 11.2393C24.0872 10.7024 24.9018 10.2993 25.768 10.0489C25.9008 10.564 25.9305 11.1003 25.8554 11.627C25.8192 11.8345 25.7626 12.038 25.6865 12.2344C25.6207 12.406 25.6034 12.5923 25.6366 12.773C25.6697 12.9537 25.7521 13.1218 25.8745 13.2588C25.9516 13.3457 26.0288 13.4395 26.0981 13.5274C26.7044 14.2853 27.0238 15.2329 27 16.2031C27.0018 16.4627 26.9893 16.7223 26.9624 16.9805C26.7422 20.0361 25.2368 21.4443 21.7666 21.8398C21.5741 21.8618 21.392 21.9392 21.2427 22.0626C21.0933 22.1861 20.983 22.3503 20.9253 22.5353C20.8675 22.7202 20.8647 22.918 20.9172 23.1046C20.9698 23.2911 21.0754 23.4583 21.2212 23.5859C21.4698 23.831 21.6333 24.1493 21.6875 24.4941C21.7551 24.7618 21.7861 25.0375 21.7798 25.3135V27.6475C21.77 28.2949 21.77 28.7803 21.77 29.0029C21.77 29.2682 21.8754 29.5225 22.0629 29.71C22.2504 29.8976 22.5048 30.0029 22.77 30.0029C23.0352 30.0029 23.2896 29.8976 23.4771 29.71C23.6647 29.5225 23.77 29.2682 23.77 29.0029C23.77 28.7861 23.77 28.3106 23.7798 27.6631V25.3135C23.7878 24.8713 23.7358 24.4301 23.625 24.002C23.5933 23.8614 23.5545 23.7226 23.5088 23.586C25.03 23.3332 26.4123 22.5489 27.4094 21.3726C28.4065 20.1962 28.9539 18.7042 28.9541 17.1621C28.987 16.8436 29.0024 16.5234 29 16.2031C29.0222 14.8219 28.5773 13.4736 27.7373 12.3769Z" fill="black"/>
</svg>
