<svg xmlns="http://www.w3.org/2000/svg" viewBox="0 0 24 24" width="24" height="24"><path d="M12 2C6.48 2 2 6.48 2 12s4.48 10 10 10 10-4.48 10-10S17.52 2 12 2zm0 18c-1.65 0-3.15-.52-4.39-1.4l1.39-1.39C9.66 17.91 10.81 18 12 18c3.87 0 7-3.13 7-7 0-1.19-.09-2.34-.28-3.45l1.39-1.39C19.48 8.85 20 10.35 20 12c0 5.52-4.48 10-10 10zm5.54-14.12l-1.39 1.39C14.34 6.09 13.19 6 12 6c-3.87 0-7 3.13-7 7 0 1.19.09 2.34.28 3.45l-1.39 1.39C4.52 15.85 4 14.35 4 12c0-5.52 4.48-10 10-10 1.65 0 3.15.52 4.39 1.4L16.54 5.88z"/></svg>
