<svg width="39" height="39" viewBox="0 0 39 39" fill="none" xmlns="http://www.w3.org/2000/svg">
<path d="M19.1533 38.3066C29.7314 38.3066 38.3066 29.7314 38.3066 19.1533C38.3066 8.57522 29.7314 0 19.1533 0C8.57522 0 0 8.57522 0 19.1533C0 29.7314 8.57522 38.3066 19.1533 38.3066Z" fill="#FDE047"/>
<path d="M29.9615 27.666C29.9121 27.7402 29.843 27.7991 29.762 27.8361C29.6809 27.8732 29.5912 27.8869 29.5028 27.8757C28.2837 27.8757 27.0636 27.8757 25.8445 27.8757C25.4614 27.8757 25.3752 27.7876 25.3752 27.3969C25.3752 25.4069 25.3867 23.4168 25.3685 21.4278C25.3721 20.8129 25.3217 20.1989 25.2182 19.5929C25.2004 19.4054 25.1452 19.2234 25.056 19.0576C24.9668 18.8918 24.8453 18.7455 24.6986 18.6273C24.552 18.5092 24.3832 18.4216 24.2022 18.3696C24.0213 18.3177 23.8317 18.3025 23.6447 18.3249C23.4073 18.3241 23.1707 18.3518 22.9399 18.4073C22.6417 18.4812 22.3712 18.6398 22.161 18.8639C21.9508 19.088 21.8099 19.3681 21.7553 19.6704C21.6201 20.2457 21.5615 20.8362 21.581 21.4268C21.5752 23.4101 21.581 25.3934 21.581 27.3768C21.581 27.8068 21.5091 27.8786 21.0753 27.8786H17.4745C17.0866 27.8786 16.9957 27.7876 16.9957 27.4055C16.9957 23.2716 16.9957 19.138 16.9957 15.0047C16.9957 14.6168 17.0838 14.5259 17.4745 14.5259H20.9748C21.3291 14.5259 21.4201 14.6216 21.422 14.9674C21.422 15.179 21.422 15.3906 21.422 15.6377C21.4669 15.6083 21.5101 15.5763 21.5513 15.542C22.0049 15.0992 22.5437 14.7531 23.135 14.5246C23.7262 14.2961 24.3577 14.19 24.9912 14.2127C25.828 14.1951 26.6587 14.3584 27.4265 14.6915C28.3277 15.1101 29.0309 15.8625 29.3878 16.7898C29.717 17.6404 29.9006 18.5405 29.9308 19.4521C29.9366 19.5479 29.9538 19.6436 29.9653 19.7394L29.9615 27.666Z" fill="#030712"/>
<path d="M15.1464 21.2178C15.1464 23.271 15.1464 25.3246 15.1464 27.3785C15.1464 27.7989 15.0708 27.8755 14.6552 27.8755H11.0333C10.6368 27.8755 10.5477 27.7855 10.5477 27.389C10.5477 23.2627 10.5477 19.1368 10.5477 15.0112C10.5477 14.6137 10.6349 14.5256 11.0333 14.5256H14.6935C15.0574 14.5256 15.1464 14.6147 15.1464 14.9815C15.1464 17.0603 15.1464 19.1393 15.1464 21.2188" fill="#030712"/>
<path d="M15.4624 10.8048C15.4637 11.3215 15.3118 11.8269 15.0257 12.2572C14.7397 12.6875 14.3325 13.0233 13.8556 13.2221C13.3787 13.4208 12.8535 13.4737 12.3466 13.3739C11.8396 13.2741 11.3736 13.0262 11.0076 12.6615C10.6416 12.2969 10.392 11.8318 10.2903 11.3252C10.1887 10.8186 10.2396 10.2933 10.4366 9.81565C10.6337 9.33801 10.9679 8.92955 11.3972 8.64194C11.8264 8.35434 12.3313 8.20052 12.848 8.19995C13.5395 8.2007 14.2026 8.47508 14.6925 8.96315C15.1823 9.45121 15.4591 10.1133 15.4624 10.8048Z" fill="#030712"/>
</svg>
