<svg width="381" height="347" viewBox="0 0 381 347" fill="none" xmlns="http://www.w3.org/2000/svg">
<g clip-path="url(#clip0_114_771)">
<path d="M260.161 207.903C297.656 207.903 328.051 177.801 328.051 140.668C328.051 103.536 297.656 73.434 260.161 73.434C222.666 73.434 192.271 103.536 192.271 140.668C192.271 177.801 222.666 207.903 260.161 207.903Z" fill="#FDE047"/>
<path d="M297.657 221.43C297.521 232.073 291.416 243.113 280.417 249.114C274.274 252.467 272.111 256.198 273.205 263.263C275.918 280.727 264.893 297.544 247.984 304.295C244.054 305.866 240.15 309.026 237.723 312.482C227.76 326.625 210.721 333.28 194.226 328.741C177.964 324.266 166.285 309.475 165.605 292.498C164.951 276.156 175.439 260.949 191.481 254.999C192.51 254.615 193.591 254.365 194.621 253.967C199.392 252.114 201.91 248.646 200.395 243.69C198.822 238.542 194.698 236.17 189.506 238.183C183.402 240.555 177.595 243.696 171.736 246.658C169.891 247.588 168.298 249.011 165.521 250.954C165.521 247.902 165.521 246.024 165.521 244.139C165.534 206.095 165.527 168.05 165.579 130.013C165.592 119.639 168.098 115.049 176.242 112.478C178.32 106.375 181.052 100.566 184.353 95.1294C183.285 94.7448 182.061 94.5652 180.702 94.6229C175.963 94.8153 171.276 96.1424 165.65 97.1361C165.65 75.0367 165.366 53.1937 165.786 31.37C165.961 22.2533 173.684 15.6882 182.89 17.2141C192.911 18.8682 202.629 22.2853 212.527 24.946C206.221 31.4149 200.609 36.3066 196.103 42.0511C191.811 47.5262 192.782 52.9052 197.255 55.7903C201.845 58.7523 206.118 57.1751 210.196 51.0075C216.385 41.6472 226.847 38.1466 236.635 42.1537C241.691 44.2245 245.679 48.2828 247.912 53.0783C252.192 52.4565 256.561 52.1231 261.015 52.1231C262.537 52.1231 264.045 52.1615 265.547 52.2385C263.346 43.25 257.804 35.7873 249.078 29.7864C244.74 26.7988 240.5 23.574 235.845 21.157C223.985 15.0086 212.287 8.26403 199.825 3.59667C184.936 -1.98108 169.891 -2.01954 157.163 10.5336C145.109 -1.50665 130.945 -1.3079 116.269 2.83374C110.358 4.50065 104.299 6.37272 99.0355 9.3924C86.4764 16.5922 73.885 23.9074 62.174 32.3573C50.6118 40.6983 46.3133 52.9117 48.0935 67.0676C48.3072 68.7666 48.4884 70.4655 48.6826 72.1581C47.8864 72.6325 47.3814 73.0813 46.7923 73.2672C21.4476 81.3902 7.98862 107.445 12.7468 130.07C13.2194 132.314 11.7693 135.437 10.2933 137.52C-1.36595 153.978 -3.26924 171.339 5.39265 189.502C7.12761 193.131 6.88808 195.631 5.20491 199.068C-5.23726 220.392 0.543805 245.184 19.4731 259.686C22.8847 262.302 23.7263 264.898 23.9335 268.931C25.0729 291.319 35.8322 307.674 55.9915 318.092C59.5197 319.913 62.9702 322.56 65.4303 325.631C87.81 353.546 130.349 353.975 153.065 326.343C154.393 324.727 155.772 323.15 157.222 321.445C158.044 322.336 158.516 322.778 158.911 323.279C184.269 355.078 225.462 354.899 250.942 322.958C252.353 321.188 254.49 319.765 256.574 318.791C278.462 308.558 289.448 291.37 290.736 267.591C290.872 265.065 292.614 261.917 294.627 260.321C305.354 251.8 311.931 240.343 313.744 228.059L303.943 218.353C301.884 219.475 299.787 220.501 297.663 221.456L297.657 221.43ZM148.76 290.953C148.689 309.462 136.667 324.433 119.739 328.843C102.654 333.286 86.088 326.356 75.743 311.001C73.8461 308.193 70.4992 305.737 67.2753 304.513C48.838 297.505 38.3894 280.804 41.3673 261.558C42.3125 255.467 39.7748 252.39 34.7252 249.627C18.9811 241.01 12.941 223.757 19.4342 209.223C28.8018 211.993 37.4442 215.16 46.3715 216.994C53.5444 218.468 58.225 214.846 58.5616 209.345C58.8853 204.107 55.2665 201.216 47.8929 200.446C33.8772 198.991 23.9205 191.849 19.0652 178.719C14.2746 165.774 17.259 154.029 27.0279 144.4C31.3718 140.123 32.4335 136.161 30.5626 130.385C26.3094 117.254 29.6692 105.605 39.833 96.3796C49.8026 87.3334 61.6366 85.0446 74.254 90.1287C87.0461 95.2833 93.9536 105.086 95.1319 118.755C95.721 125.595 98.6536 128.955 103.93 128.769C109.478 128.57 112.365 124.595 112.041 117.594C111.044 95.9565 94.5363 76.4087 72.7262 72.3055C66.3236 71.1002 64.8735 67.8049 64.5628 62.6246C64.0384 53.9374 69.7936 45.2182 78.1059 41.9934C86.5865 38.698 96.1935 41.1214 102.078 48.1481C103.334 49.6483 104.215 51.4563 105.38 53.0399C108.39 57.143 112.32 58.6112 116.851 55.8608C121.305 53.1617 122.717 48.5649 119.687 44.5835C115.388 38.9416 109.97 34.1332 104.978 29.0171C104.253 28.2734 103.218 27.8182 101.703 26.8181C111.815 21.0544 121.953 17.3231 133.075 17.0281C141.173 16.8102 148.139 22.4328 148.463 30.357C149.052 44.7181 148.631 59.1177 148.631 73.7737C143.976 72.7736 139.788 71.5298 135.515 71.0425C129.592 70.3758 125.39 73.5878 125.202 78.6206C124.995 84.1599 127.98 86.9167 133.463 87.6732C143.879 89.1029 148.773 94.3537 148.786 104.689C148.883 166.775 149.006 228.867 148.767 290.953H148.76Z" fill="black"/>
<path d="M64.4009 198.484C80.5918 196.939 91.9662 188.772 97.7731 173.647C99.1779 169.993 101.34 168.736 104.849 167.185C112.559 163.781 120.108 159.594 126.84 154.568C131.916 150.779 130.692 142.81 125.118 141.271C122.024 140.418 117.22 141.624 114.644 143.688C103.91 152.298 92.2251 155.036 79.4718 149.939C66.738 144.855 59.7787 135.001 58.717 121.287C58.6328 120.204 58.6522 119.082 58.3739 118.043C57.1309 113.421 54.0947 110.875 49.207 111.395C44.6624 111.882 41.9953 114.716 41.9176 119.255C41.8593 122.717 42.0794 126.281 42.8563 129.641C47.6015 150.118 60.8792 162.492 81.7247 168.435C77.6851 177.148 71.2696 181.123 62.4459 181.956C56.3152 182.54 53.2143 186.066 53.784 191.201C54.3407 196.209 58.2832 199.061 64.388 198.478L64.4009 198.484Z" fill="black"/>
<path d="M121.642 199.613C116.638 200.087 111.472 200.818 106.798 202.536C86.6318 209.954 76.0407 224.956 73.2441 246.274C67.0875 246.684 61.7661 248.062 61.7985 254.967C61.8308 262.327 67.3206 263.065 73.3153 263.603C89.5644 265.052 101.716 277.9 103.075 294.492C103.632 301.282 106.616 304.648 111.905 304.462C117.44 304.269 120.47 300.333 119.926 293.261C118.593 275.932 110.449 262.475 95.3066 253.711C91.0728 251.262 90.0953 248.684 90.7167 244.286C92.8855 228.938 105.412 217.814 122.639 216.244C128.731 215.686 132.175 212.39 131.883 207.396C131.599 202.485 127.546 199.055 121.648 199.613H121.642Z" fill="black"/>
<path d="M190.523 214.551C190.361 219.718 193.449 222.52 198.628 223.059C201.036 223.309 203.47 223.488 205.84 223.956C219.176 226.61 229.935 238.285 231.637 251.454C232.175 255.595 231.32 258.077 227.307 260.385C212.132 269.097 203.891 282.471 202.376 299.775C201.768 306.77 204.72 311.007 210.002 311.495C215.311 311.988 218.651 308.225 219.26 301.166C220.438 287.466 227.533 277.868 240.254 272.662C244.035 271.117 248.359 270.739 252.483 270.187C257.312 269.54 260.303 267.206 260.543 262.289C260.782 257.359 257.999 254.615 253.266 253.659C251.985 253.403 250.683 253.262 248.903 252.999C247.887 242.908 244.805 234.105 239.018 226.495C224.814 222.924 211.964 215.981 201.373 206.582C200.842 206.556 200.317 206.518 199.78 206.505C194.439 206.383 190.697 208.941 190.516 214.538L190.523 214.551Z" fill="black"/>
<path d="M378.158 246.902L319.545 188.855C330.485 175.75 337.063 158.959 337.063 140.668C337.063 98.9121 302.758 64.9391 260.595 64.9391C218.431 64.9391 184.127 98.9121 184.127 140.668C184.127 182.424 218.431 216.397 260.595 216.397C277.303 216.397 292.776 211.057 305.367 202.017L364.421 260.5C366.317 262.379 368.803 263.315 371.289 263.315C373.775 263.315 376.261 262.379 378.158 260.5C381.952 256.743 381.952 250.652 378.158 246.902ZM203.554 140.668C203.554 109.516 229.145 84.1727 260.601 84.1727C292.057 84.1727 317.648 109.516 317.648 140.668C317.648 171.82 292.057 197.164 260.601 197.164C229.145 197.164 203.554 171.82 203.554 140.668Z" fill="black"/>
</g>
<defs>
<clipPath id="clip0_114_771">
<rect width="381" height="347" fill="white"/>
</clipPath>
</defs>
</svg>
