<svg xmlns="http://www.w3.org/2000/svg" viewBox="0 0 24 24" width="24" height="24"><path d="M20.54 3.46a.996.996 0 00-1.41 0l-5.34 5.34-1.18-1.17 5.34-5.34a.996.996 0 10-1.41-1.41l-5.34 5.34-1.18-1.17 5.34-5.34a.996.996 0 10-1.41-1.41l-5.34 5.34-1.18-1.17 5.34-5.34a.996.996 0 10-1.41-1.41l-5.34 5.34-1.18-1.17 5.34-5.34a.996.996 0 10-1.41-1.41l-5.34 5.34-1.18-1.17 5.34-5.34a.996.996 0 10-1.41-1.41l-5.34 5.34L.46 4.12a.996.996 0 10-1.41 1.41l5.34 5.34-1.17 1.17a.996.996 0 10-1.41 1.41l5.34 5.34-1.17 1.17a.996.996 0 10-1.41 1.41l5.34 5.34-1.17 1.17a.996.996 0 10-1.41 1.41l5.34 5.34L3.46 23.54a.996.996 0 101.41-1.41l5.34-5.34-1.17-1.17a.996.996 0 101.41-1.41l5.34-5.34-1.17-1.17a.996.996 0 101.41-1.41l5.34-5.34 1.17 1.17a.996.996 0 101.41-1.41l-5.34-5.34 1.17-1.17a.996.996 0 101.41-1.41l-5.34-5.34 1.17-1.17a.996.996 0 101.41-1.41l-5.34-5.34 1.17-1.17a.996.996 0 101.41-1.41l-5.34-5.34L20.54 3.46z"/></svg>
