<svg width="58" height="59" viewBox="0 0 58 59" fill="none" xmlns="http://www.w3.org/2000/svg">
<mask id="mask0_18_270" style="mask-type:alpha" maskUnits="userSpaceOnUse" x="0" y="0" width="58" height="59">
<rect y="0.5" width="58" height="58" fill="#D9D9D9"/>
</mask>
<g mask="url(#mask0_18_270)">
<path d="M21.75 51.25C19.0917 51.25 16.816 50.3035 14.9229 48.4104C13.0299 46.5174 12.0833 44.2417 12.0833 41.5833V21.8271C10.6736 21.3035 9.51562 20.4274 8.60938 19.199C7.70312 17.9705 7.25 16.5708 7.25 15C7.25 12.9861 7.95486 11.2743 9.36458 9.86458C10.7743 8.45486 12.4861 7.75 14.5 7.75C16.5139 7.75 18.2257 8.45486 19.6354 9.86458C21.0451 11.2743 21.75 12.9861 21.75 15C21.75 16.5708 21.2969 17.9705 20.3906 19.199C19.4844 20.4274 18.3264 21.3035 16.9167 21.8271V41.5833C16.9167 42.9125 17.3899 44.0504 18.3365 44.9969C19.283 45.9434 20.4208 46.4167 21.75 46.4167C23.0792 46.4167 24.217 45.9434 25.1635 44.9969C26.1101 44.0504 26.5833 42.9125 26.5833 41.5833V17.4167C26.5833 14.7583 27.5299 12.4826 29.4229 10.5896C31.316 8.69653 33.5917 7.75 36.25 7.75C38.9083 7.75 41.184 8.69653 43.0771 10.5896C44.9701 12.4826 45.9167 14.7583 45.9167 17.4167V37.1729C47.3264 37.6965 48.4844 38.5726 49.3906 39.801C50.2969 41.0295 50.75 42.4292 50.75 44C50.75 46.0139 50.0451 47.7257 48.6354 49.1354C47.2257 50.5451 45.5139 51.25 43.5 51.25C41.4861 51.25 39.7743 50.5451 38.3646 49.1354C36.9549 47.7257 36.25 46.0139 36.25 44C36.25 42.4292 36.7031 41.0194 37.6094 39.7708C38.5156 38.5222 39.6736 37.6563 41.0833 37.1729V17.4167C41.0833 16.0875 40.6101 14.9497 39.6635 14.0031C38.717 13.0566 37.5792 12.5833 36.25 12.5833C34.9208 12.5833 33.783 13.0566 32.8365 14.0031C31.8899 14.9497 31.4167 16.0875 31.4167 17.4167V41.5833C31.4167 44.2417 30.4701 46.5174 28.5771 48.4104C26.684 50.3035 24.4083 51.25 21.75 51.25ZM14.5 17.4167C15.1847 17.4167 15.7587 17.1851 16.2219 16.7219C16.6851 16.2587 16.9167 15.6847 16.9167 15C16.9167 14.3153 16.6851 13.7413 16.2219 13.2781C15.7587 12.8149 15.1847 12.5833 14.5 12.5833C13.8153 12.5833 13.2413 12.8149 12.7781 13.2781C12.3149 13.7413 12.0833 14.3153 12.0833 15C12.0833 15.6847 12.3149 16.2587 12.7781 16.7219C13.2413 17.1851 13.8153 17.4167 14.5 17.4167ZM43.5 46.4167C44.1847 46.4167 44.7587 46.1851 45.2219 45.7219C45.6851 45.2587 45.9167 44.6847 45.9167 44C45.9167 43.3153 45.6851 42.7413 45.2219 42.2781C44.7587 41.8149 44.1847 41.5833 43.5 41.5833C42.8153 41.5833 42.2413 41.8149 41.7781 42.2781C41.3149 42.7413 41.0833 43.3153 41.0833 44C41.0833 44.6847 41.3149 45.2587 41.7781 45.7219C42.2413 46.1851 42.8153 46.4167 43.5 46.4167Z" fill="#1C1B1F"/>
</g>
</svg>